<svg width="24" height="24" viewBox="0 0 24 24" fill="none" xmlns="http://www.w3.org/2000/svg">
<rect width="24" height="24" rx="5.64706" fill="#0C34F0"/>
<g clip-path="url(#clip0_317_425)">
<path d="M6.82359 8.76466C6.82359 8.40878 7.11476 8.1176 7.47065 8.1176H17.8236C18.1795 8.1176 18.4706 7.82643 18.4706 7.47055C18.4706 7.11466 18.1795 6.82349 17.8236 6.82349H6.82359C6.11182 6.82349 5.52947 7.40584 5.52947 8.1176V15.2353H5.20594C4.66888 15.2353 4.23535 15.6688 4.23535 16.2058C4.23535 16.7429 4.66888 17.1764 5.20594 17.1764H12.3236C12.8606 17.1764 13.2942 16.7429 13.2942 16.2058C13.2942 15.6688 12.8606 15.2353 12.3236 15.2353H6.82359V8.76466ZM19.1177 9.41172H15.2354C14.8795 9.41172 14.5883 9.7029 14.5883 10.0588V16.5294C14.5883 16.8853 14.8795 17.1764 15.2354 17.1764H19.1177C19.4736 17.1764 19.7648 16.8853 19.7648 16.5294V10.0588C19.7648 9.7029 19.4736 9.41172 19.1177 9.41172ZM18.4706 15.2353H15.8824V10.7058H18.4706V15.2353Z" fill="#F3F5FE"/>
</g>
<defs>
<clipPath id="clip0_317_425">
<rect width="15.5294" height="15.5294" fill="white" transform="translate(4.23535 4.23535)"/>
</clipPath>
</defs>
</svg>
