<svg width="24" height="24" viewBox="0 0 24 24" fill="none" xmlns="http://www.w3.org/2000/svg">
<rect width="24" height="24" rx="5.64706" fill="#0C34F0"/>
<path d="M15.424 8.36465L16.4404 9.38112L12.9957 12.8258L10.6734 10.5035C10.3981 10.2282 9.95339 10.2282 9.67809 10.5035L5.4428 14.7458C5.1675 15.0211 5.1675 15.4658 5.4428 15.7411C5.71809 16.0164 6.1628 16.0164 6.43809 15.7411L10.1722 11.9999L12.4946 14.3223C12.7699 14.5976 13.2146 14.5976 13.4899 14.3223L17.4357 10.3835L18.4522 11.3999C18.671 11.6188 19.0522 11.4635 19.0522 11.1529V8.11759C19.0593 7.91994 18.904 7.76465 18.7063 7.76465H15.6781C15.3604 7.76465 15.2052 8.14582 15.424 8.36465Z" fill="#F3F5FE"/>
</svg>
