<svg width="24" height="24" viewBox="0 0 24 24" fill="none" xmlns="http://www.w3.org/2000/svg">
<rect y="0.000244141" width="24" height="24" rx="5.64706" fill="#0C34F0"/>
<g clip-path="url(#clip0_317_427)">
<path d="M15.667 6.00073C14.367 6.00073 12.967 6.2674 12.0003 7.00073C11.0337 6.2674 9.63366 6.00073 8.33366 6.00073C7.36699 6.00073 6.34033 6.1474 5.48033 6.5274C4.99366 6.7474 4.66699 7.22073 4.66699 7.76073V15.2807C4.66699 16.1474 5.48033 16.7874 6.32033 16.5741C6.97366 16.4074 7.66699 16.3341 8.33366 16.3341C9.37366 16.3341 10.4803 16.5074 11.3737 16.9474C11.7737 17.1474 12.227 17.1474 12.6203 16.9474C13.5137 16.5007 14.6203 16.3341 15.6603 16.3341C16.327 16.3341 17.0203 16.4074 17.6737 16.5741C18.5137 16.7941 19.327 16.1541 19.327 15.2807V7.76073C19.327 7.22073 19.0003 6.7474 18.5137 6.5274C17.6603 6.1474 16.6337 6.00073 15.667 6.00073ZM18.0003 14.4874C18.0003 14.9074 17.6137 15.2141 17.2003 15.1407C16.7003 15.0474 16.1803 15.0074 15.667 15.0074C14.5337 15.0074 12.9003 15.4407 12.0003 16.0074V8.33407C12.9003 7.7674 14.5337 7.33407 15.667 7.33407C16.2803 7.33407 16.887 7.39407 17.467 7.52073C17.7737 7.5874 18.0003 7.86073 18.0003 8.17407V14.4874Z" fill="white"/>
<path d="M13.3196 10.3405C13.1063 10.3405 12.9129 10.2071 12.8463 9.99381C12.7596 9.73381 12.9063 9.44714 13.1663 9.36714C14.1929 9.03381 15.5196 8.92714 16.7396 9.06714C17.0129 9.10047 17.2129 9.34714 17.1796 9.62047C17.1463 9.89381 16.8996 10.0938 16.6263 10.0605C15.5463 9.93381 14.3663 10.0338 13.4729 10.3205C13.4196 10.3271 13.3663 10.3405 13.3196 10.3405Z" fill="white"/>
<path d="M13.3196 12.1139C13.1063 12.1139 12.9129 11.9806 12.8463 11.7672C12.7596 11.5072 12.9063 11.2206 13.1663 11.1406C14.1863 10.8072 15.5196 10.7006 16.7396 10.8406C17.0129 10.8739 17.2129 11.1206 17.1796 11.3939C17.1463 11.6672 16.8996 11.8672 16.6263 11.8339C15.5463 11.7072 14.3663 11.8072 13.4729 12.0939C13.4196 12.1072 13.3663 12.1139 13.3196 12.1139Z" fill="white"/>
<path d="M13.3196 13.8873C13.1063 13.8873 12.9129 13.754 12.8463 13.5407C12.7596 13.2807 12.9063 12.994 13.1663 12.914C14.1863 12.5807 15.5196 12.474 16.7396 12.614C17.0129 12.6473 17.2129 12.894 17.1796 13.1673C17.1463 13.4407 16.8996 13.634 16.6263 13.6073C15.5463 13.4807 14.3663 13.5807 13.4729 13.8673C13.4196 13.8807 13.3663 13.8873 13.3196 13.8873Z" fill="white"/>
</g>
<defs>
<clipPath id="clip0_317_427">
<rect width="16" height="16" fill="white" transform="translate(4 3.00073)"/>
</clipPath>
</defs>
</svg>
