<svg width="24" height="24" viewBox="0 0 24 24" fill="none" xmlns="http://www.w3.org/2000/svg">
<rect width="24" height="24" rx="5.64706" fill="#0C34F0"/>
<path d="M7.05919 12.8327V14.8162C7.05919 15.3315 7.34154 15.8115 7.79331 16.0586L11.3227 17.9857C11.7462 18.2186 12.2545 18.2186 12.678 17.9857L16.2074 16.0586C16.6592 15.8115 16.9415 15.3315 16.9415 14.8162V12.8327L12.678 15.1621C12.2545 15.3951 11.7462 15.3951 11.3227 15.1621L7.05919 12.8327ZM11.3227 6.01389L5.37213 9.26095C4.88507 9.52919 4.88507 10.2351 5.37213 10.5033L11.3227 13.7504C11.7462 13.9833 12.2545 13.9833 12.678 13.7504L18.3533 10.6515V14.8233C18.3533 15.2115 18.671 15.5292 19.0592 15.5292C19.4474 15.5292 19.7651 15.2115 19.7651 14.8233V10.2986C19.7651 10.0374 19.6239 9.80448 19.398 9.67742L12.678 6.01389C12.2545 5.78801 11.7462 5.78801 11.3227 6.01389Z" fill="#F3F5FE"/>
</svg>
