<svg width="24" height="24" viewBox="0 0 24 24" fill="none" xmlns="http://www.w3.org/2000/svg">
<rect width="24" height="24" rx="5.64706" fill="#0C34F0"/>
<path d="M19.7648 9.17641C19.7648 9.95288 19.1295 10.5882 18.353 10.5882C18.2259 10.5882 18.1059 10.5741 17.993 10.5388L15.4801 13.0446C15.5154 13.1576 15.5295 13.2846 15.5295 13.4117C15.5295 14.1882 14.8942 14.8235 14.1177 14.8235C13.3412 14.8235 12.7059 14.1882 12.7059 13.4117C12.7059 13.2846 12.7201 13.1576 12.7554 13.0446L10.9554 11.2446C10.8424 11.2799 10.7154 11.2941 10.5883 11.2941C10.4612 11.2941 10.3342 11.2799 10.2212 11.2446L7.00947 14.4635C7.04476 14.5764 7.05888 14.6964 7.05888 14.8235C7.05888 15.5999 6.42359 16.2352 5.64712 16.2352C4.87065 16.2352 4.23535 15.5999 4.23535 14.8235C4.23535 14.047 4.87065 13.4117 5.64712 13.4117C5.77418 13.4117 5.89418 13.4258 6.00712 13.4611L9.22594 10.2494C9.19065 10.1364 9.17653 10.0094 9.17653 9.8823C9.17653 9.10582 9.81182 8.47053 10.5883 8.47053C11.3648 8.47053 12.0001 9.10582 12.0001 9.8823C12.0001 10.0094 11.9859 10.1364 11.9506 10.2494L13.7506 12.0494C13.8636 12.0141 13.9906 11.9999 14.1177 11.9999C14.2448 11.9999 14.3718 12.0141 14.4848 12.0494L16.9906 9.53641C16.9554 9.42347 16.9412 9.30347 16.9412 9.17641C16.9412 8.39994 17.5765 7.76465 18.353 7.76465C19.1295 7.76465 19.7648 8.39994 19.7648 9.17641ZM19.7648 9.17641C19.7648 9.95288 19.1295 10.5882 18.353 10.5882C18.2259 10.5882 18.1059 10.5741 17.993 10.5388L15.4801 13.0446C15.5154 13.1576 15.5295 13.2846 15.5295 13.4117C15.5295 14.1882 14.8942 14.8235 14.1177 14.8235C13.3412 14.8235 12.7059 14.1882 12.7059 13.4117C12.7059 13.2846 12.7201 13.1576 12.7554 13.0446L10.9554 11.2446C10.8424 11.2799 10.7154 11.2941 10.5883 11.2941C10.4612 11.2941 10.3342 11.2799 10.2212 11.2446L7.00947 14.4635C7.04476 14.5764 7.05888 14.6964 7.05888 14.8235C7.05888 15.5999 6.42359 16.2352 5.64712 16.2352C4.87065 16.2352 4.23535 15.5999 4.23535 14.8235C4.23535 14.047 4.87065 13.4117 5.64712 13.4117C5.77418 13.4117 5.89418 13.4258 6.00712 13.4611L9.22594 10.2494C9.19065 10.1364 9.17653 10.0094 9.17653 9.8823C9.17653 9.10582 9.81182 8.47053 10.5883 8.47053C11.3648 8.47053 12.0001 9.10582 12.0001 9.8823C12.0001 10.0094 11.9859 10.1364 11.9506 10.2494L13.7506 12.0494C13.8636 12.0141 13.9906 11.9999 14.1177 11.9999C14.2448 11.9999 14.3718 12.0141 14.4848 12.0494L16.9906 9.53641C16.9554 9.42347 16.9412 9.30347 16.9412 9.17641C16.9412 8.39994 17.5765 7.76465 18.353 7.76465C19.1295 7.76465 19.7648 8.39994 19.7648 9.17641Z" fill="#F3F5FE"/>
</svg>
